<?xml version="1.0" encoding="UTF-8"?>
<!DOCTYPE svg PUBLIC "-//W3C//DTD SVG 1.1//EN" "http://www.w3.org/Graphics/SVG/1.1/DTD/svg11.dtd">
<!-- Creator: CorelDRAW (Evaluation Version) -->
<svg xmlns="http://www.w3.org/2000/svg" xml:space="preserve" width="314px" height="139px" version="1.1" style="shape-rendering:geometricPrecision; text-rendering:geometricPrecision; image-rendering:optimizeQuality; fill-rule:evenodd; clip-rule:evenodd"
viewBox="0 0 1976.14 872.61"
 xmlns:xlink="http://www.w3.org/1999/xlink"
 xmlns:xodm="http://www.corel.com/coreldraw/odm/2003">
 <defs>
  <style type="text/css">
   <![CDATA[
    .str0 {stroke:#FEFEFE;stroke-width:23.11;stroke-miterlimit:2.61313}
    .fil0 {fill:none;fill-rule:nonzero}
   ]]>
  </style>
  
  <style>
.cls-1 {
	stroke-miterlimit: 50;
    stroke-width: 30;
    stroke-dasharray: 1000;
    fill: transparent;
	stroke: #fff;	  
    animation: offset 3s linear;
	animation-delay: 0s;
	animation-fill-mode: both;
	transform-origin: center;
}

@keyframes offset {
	0% { 
		stroke-dasharray: 1000;
	}
    60% {
		stroke-dasharray: 0;
		transform: scale3d(0.95, 0.95, 0.95);
	}
	100% {
		stroke-dasharray: 0;
		transform: scale3d(1, 1, 1);
	}
}

@keyframes fill-x {
    to { 
		stroke: #fff;
	}
}
</style>

</defs>
 <g id="Layer_x0020_1">
  <metadata id="CorelCorpID_0Corel-Layer"/>
  <g>
   <path class="fil0 str0 cls-1" d="M11.56 838.64l0 -805.8 263.37 0 0 805.8 -263.37 0zm672.24 -188.28l119.73 0c39.78,0 67.99,-5.79 84.8,-17.56 16.81,-11.58 25.22,-30.82 25.22,-57.53 0,-26.71 -8.59,-45.57 -25.78,-56.97 -17,-11.39 -45.95,-17 -86.48,-17l-117.49 0 0 149.06zm0 -295.87l106.65 0c35.68,0 60.89,-5.23 75.46,-15.88 14.57,-10.65 21.85,-28.39 21.85,-53.61 0,-26.71 -7.84,-44.83 -23.53,-54.73 -15.69,-9.9 -51.93,-14.76 -108.71,-14.76l-71.73 0 0 138.97zm-251.04 484.15l0 -805.8 330.42 0c70.98,0 122.9,1.87 155.4,5.42 32.5,3.73 60.33,9.71 83.68,18.12 40.91,15.32 72.1,39.23 93.95,71.54 21.67,32.5 32.5,71.91 32.5,118.24 0,36.42 -8.03,68.18 -24.28,95.44 -16.25,27.09 -40.72,49.5 -73.22,66.87 42.77,15.32 74.34,38.29 94.89,68.92 20.36,30.63 30.63,70.42 30.63,119.36 0,47.82 -9.9,89.28 -29.89,124.58 -19.8,35.12 -48.75,62.2 -86.67,81.25 -25.59,13.08 -54.92,22.42 -87.6,27.83 -32.88,5.42 -87.23,8.22 -163.25,8.22l-356.57 0zm811.21 -251.04l252.16 0c6.91,29.14 19.43,50.06 37.73,62.76 18.12,12.7 45.39,19.05 81.44,19.05 30.07,0 53.98,-5.23 71.17,-15.5 17.37,-10.46 25.96,-24.66 25.96,-42.96 0,-29.14 -36.24,-52.67 -108.71,-70.98 -14.57,-3.55 -25.77,-6.35 -33.44,-8.22 -59.39,-15.32 -106.65,-29.33 -141.96,-41.84 -35.12,-12.51 -60.7,-24.47 -76.77,-35.3 -31.01,-22.23 -54.36,-48.94 -69.86,-79.94 -15.5,-31.01 -23.16,-66.49 -23.16,-106.28 0,-79.94 30.07,-142.7 90.22,-188.46 60.15,-45.58 142.89,-68.37 248.24,-68.37 103.67,0 185.11,21.85 244.5,65.56 59.4,43.71 93.02,106.28 100.68,187.72l-245.44 0c-3.92,-23.72 -14.57,-41.46 -31.38,-53.05 -17,-11.77 -41.28,-17.56 -72.66,-17.56 -27.64,0 -48.19,4.48 -61.83,13.63 -13.45,9.15 -20.17,22.97 -20.17,41.65 0,26.52 35.3,48.94 106.1,66.68 6.35,1.87 11.02,3.18 14.2,3.92 10.27,2.43 25.78,6.35 46.69,11.39 93.77,23.72 155.03,45.2 183.99,64.63 35.67,23.72 61.82,50.62 78.26,80.88 16.44,30.26 24.65,66.12 24.65,107.22 0,89.1 -31.19,157.46 -93.39,205.09 -62.2,47.82 -151.3,71.73 -267.48,71.73 -107.03,0 -191.83,-23.91 -254.4,-71.73 -62.57,-47.63 -97.69,-114.87 -105.35,-201.73z"/>
  </g>
 </g>
</svg>
