<?xml version="1.0" encoding="UTF-8"?>
<!DOCTYPE svg PUBLIC "-//W3C//DTD SVG 1.1//EN" "http://www.w3.org/Graphics/SVG/1.1/DTD/svg11.dtd">
<!-- Creator: CorelDRAW (Evaluation Version) -->
<svg xmlns="http://www.w3.org/2000/svg" xml:space="preserve" width="145.112mm" height="26.0092mm" version="1.1" style="shape-rendering:geometricPrecision; text-rendering:geometricPrecision; image-rendering:optimizeQuality; fill-rule:evenodd; clip-rule:evenodd"
viewBox="0 0 15676.34 2809.76"
 xmlns:xlink="http://www.w3.org/1999/xlink"
 xmlns:xodm="http://www.corel.com/coreldraw/odm/2003">
 <defs>
  <style type="text/css">
   <![CDATA[
    .fil0 {fill:#333B8C;fill-rule:nonzero}
   ]]>
  </style>
  
  <style>
.cls-1 {
	stroke-miterlimit: 50;
    stroke-width: 50;
    stroke-dasharray: 2000;
    fill: transparent;
	stroke: #333b8c;	  
    animation: offset 1s linear, fill-x 3.5s;
	animation-delay: 1.5s;
	animation-fill-mode: both;
}

@keyframes offset {
	from { 
		stroke-dashoffset: 2000;
	}
    to {
		stroke-dashoffset: 0;
	}
}

@keyframes fill-x {
    to { 
		fill: #333b8c;
		stroke: transparent;
	}
}
</style>
 </defs>
 <g id="Layer_x0020_1">
  <metadata id="CorelCorpID_0Corel-Layer"/>
  <path class="fil0 cls-1" d="M9778.3 1086.3c83.2,-58.57 169.48,-89.37 258.88,-89.37 203.47,0 342.12,157.2 342.12,397.61 0,243.52 -135.61,391.39 -354.42,391.39 -86.3,0 -169.57,-30.77 -246.58,-89.34l0 -610.29zm-446.89 1723.46l0 0 446.89 0 0 -804.99c110.94,92.51 240.45,136.13 394.52,136.13 397.58,0 675,-299.47 675,-743.29 0,-446.89 -277.42,-745.93 -675,-745.93 -160.27,0 -289.71,46.3 -409.92,148.01l0 -117.1 -431.49 0 0 2127.17zm-809.4 -878.93l0 0 0 178.78 449.99 0 0 -1427.03 -449.99 0 0 909.21c-86.3,151.04 -197.27,225 -320.51,225 -141.78,0 -200.37,-95.53 -200.37,-292.81l0 -841.4 -450.03 0 0 903.04c0,360.61 178.78,552.2 487.06,552.2 194.17,0 339.02,-59.02 483.85,-207zm-1777.11 178.78l0 0 449.99 0 0 -2105.16 -449.99 0 0 2105.16zm-877.17 -342.15l0 0c-83.2,58.54 -160.27,89.34 -228.08,89.34 -98.63,0 -157.2,-58.5 -157.2,-150.94 0,-129.54 123.3,-194.14 385.29,-286.68l0 348.28zm21.53 209.54l0 0c15.47,104.87 95.54,157.72 240.41,157.72 123.32,0 249.72,-40.55 394.59,-111.45l0 -249.65c-52.47,21.53 -95.61,36.97 -141.77,36.97 -46.31,0 -58.61,-30.8 -58.61,-89.33l0 -567.13c0,-345.22 -169.51,-499.32 -585.63,-499.32 -252.71,0 -459.22,52.44 -634.87,172.58l-6.2 354.44c166.38,-154.1 339.02,-228.04 493.17,-228.04 187.97,0 280.48,61.57 280.48,200.34 0,12.3 0,24.6 -3.1,40.04 -564.02,163.37 -838.41,268.18 -838.41,545.56 0,262.01 141.84,398.1 416.12,398.1 166.47,0 311.35,-52.85 443.82,-160.82zm-2140.79 388.91l0 0c0,-101.71 117.1,-163.34 342.12,-163.34 212.6,0 329.81,64.73 329.81,166.51 0,110.87 -117.21,172.5 -339.08,172.5 -221.95,0 -332.85,-58.53 -332.85,-175.67zm332.85 -1409.05l0 0c157.24,0 255.8,98.63 255.8,243.44 0,144.9 -98.57,243.57 -255.8,243.57 -157.17,0 -255.78,-98.67 -255.78,-243.57 0,-144.81 98.61,-243.44 255.78,-243.44zm-298.98 684.19l0 0c-160.32,37.03 -240.45,107.94 -240.45,218.85 0,83.27 55.54,141.84 166.48,175.71 -249.65,64.73 -379.09,188.52 -379.09,355 0,252.75 258.87,419.15 736.6,419.15 505.46,0 761.3,-163.34 761.3,-471.62 0,-231.63 -160.24,-379.56 -468.46,-419.63 -268.14,-33.9 -391.46,-21.57 -391.46,-117.15 0,-110.94 123.32,-80.09 320.52,-114 302.07,-52.44 456.19,-203.41 456.19,-462.39 0,-95.5 -21.61,-172.58 -67.81,-243.48l200.38 0 0 -298.91 -724.3 0c-490.12,0 -745.9,178.77 -745.9,496.15 0,237.38 123.24,388.39 375.99,462.32zm-630.56 311.35l0 0 0 -295.85c-184.95,129.38 -366.78,191.11 -542.49,191.11 -268.07,0 -434.52,-138.74 -434.52,-366.82l0 -6.17 1010.91 0 0 -15.47c0,-505.42 -280.51,-804.4 -724.34,-804.4 -453.05,0 -748.89,286.68 -748.89,724.3 0,468.56 286.58,761.78 785.9,761.78 246.54,0 459.25,-62.08 653.43,-188.49zm-973.95 -696.61l0 0c24.67,-191.04 135.54,-295.84 286.61,-295.84 147.95,0 252.71,107.9 268.15,295.84l-554.76 0zm-1398.05 -379.04l0 0 -249.71 0 0 -480.86 252.78 0c191.1,0 289.75,89.44 289.75,240.45 0,163.34 -95.57,240.41 -292.81,240.41zm-779.8 1232.85l0 0 530.09 0 0 -822.94 203.51 0c588.63,0 881.44,-215.81 881.44,-653.43 0,-431.52 -277.39,-628.8 -838.34,-628.8l-776.7 0 0 2105.16z"/>
 </g>
</svg>
