<?xml version="1.0" encoding="UTF-8"?>
<!DOCTYPE svg PUBLIC "-//W3C//DTD SVG 1.1//EN" "http://www.w3.org/Graphics/SVG/1.1/DTD/svg11.dtd">
<!-- Creator: CorelDRAW (Evaluation Version) -->
<svg xmlns="http://www.w3.org/2000/svg" xml:space="preserve" width="75px" height="59px" version="1.1" style="shape-rendering:geometricPrecision; text-rendering:geometricPrecision; image-rendering:optimizeQuality; fill-rule:evenodd; clip-rule:evenodd"
viewBox="0 0 477.09 375.11"
 xmlns:xlink="http://www.w3.org/1999/xlink"
 xmlns:xodm="http://www.corel.com/coreldraw/odm/2003">
 <defs>
  <style type="text/css">
   <![CDATA[
    .fil0 {fill:#333B8C}
   ]]>
  </style>
  
<style>
.cls-1 {
	stroke-miterlimit: 0;
    stroke-width: 10;
    stroke-dasharray: 3000;
    fill: transparent;
	stroke: #333b8c;	  
    animation: offset 2s linear, fill-x 4s;
	animation-delay: 3.5s;
	animation-iteration-count: infinite;
	animation-fill-mode: both;
}

@keyframes offset {
	from { 
		stroke-dashoffset: 3000;
	}
    to {
		stroke-dashoffset: 0;
	}
}

@keyframes fill-x {
    to { 
		fill: #333b8c;
		stroke: transparent;
	}
}
</style>
 </defs>
 <g id="Layer_x0020_1">
  <metadata id="CorelCorpID_0Corel-Layer"/>
  <path class="fil0 cls-1" d="M45.51 360.77c2.41,-4.99 17.52,-18.71 22.47,-23.54 4.06,-3.96 7.4,-7.33 11.39,-11.36 3.87,-3.91 7.29,-8.7 12.12,-11.2l75.02 -75.73c1.52,-1.06 0.34,-0.41 1.63,-0.88 3.66,-7.17 46.45,-44.89 49.04,-51.09l-58.26 -58.61c8.05,-0.95 20.55,-0.21 29.1,-0.22 14.46,-0.02 10.65,-0.9 17.07,5.23 1.43,1.36 2.14,1.95 3.55,3.44l30.13 29.67 59.78 -60.1c-6.72,-0.75 -15.48,-0.2 -22.48,-0.27 -10.92,-0.11 -9.93,1.56 -15.44,7.13 -6.79,6.87 -15.12,16.1 -22.14,21.93 -3.47,-2.06 -13.48,-12.02 -15.2,-15.66 -2.97,-0.99 -6.04,-4.83 -8.13,-7.05 -6.4,-6.78 -4.49,-6.3 -10.22,-6.41 -21.06,-0.41 -83.37,-0.77 -98.92,0.24 1.92,3.66 71.9,73.41 80.01,80.82 -2.74,5.91 -182.05,180.2 -186.01,187.79 44.65,0.87 26.8,-0.5 43.24,-12.88 2.17,-1.63 0.69,-0.73 2.26,-1.24zm364.69 -325.1c-1.09,3.67 -51.11,52.26 -58.58,59.74 -0.9,0.9 -1.18,1.27 -2.01,1.89 -2.38,1.78 -0.36,0.65 -2.23,1.22 -2.08,4.44 -16.94,18.03 -21.5,22.57 -7.54,7.52 -14.24,14.33 -21.76,21.79l-44.07 44.22c1.8,4.49 46.79,47.75 53.44,54.64 2.08,2.15 2.56,2.08 3.88,5.23 -9.79,0.01 -19.59,-0.04 -29.38,0 -15.1,0.07 -12,-1.37 -19.99,-9.19 -5.63,-5.52 -25.21,-26.02 -29.5,-28.98 -10.23,7.89 -43.2,45.49 -49.98,48.54 -0.71,2.42 0.24,0.57 -1.64,2.82 -0.87,1.05 -1.86,1.84 -3.01,2.94 -2.29,2.2 -3.45,3.45 -5.35,5.67 6.7,0.59 14.54,0.13 21.41,0.21 13.4,0.15 9.84,-1.51 26.88,-17.38 3.98,-3.71 7.29,-8.02 11.7,-11.47 4.56,2.99 15.85,15.3 20.22,19.77 11.76,12.05 7.07,9.07 31.24,9.07 26.9,0 54.15,-0.42 81.01,0.01 -1.8,-4.75 -5.93,-4.7 -7.49,-9.22l-5.85 -4.77c-12.98,-13.98 -63.83,-61.75 -66.56,-67.89 9.13,-8.52 17.31,-16.58 23.81,-23.57 20.45,-22.02 155.84,-153.99 162.23,-163.27 -8.28,-0.23 -17.65,-0.35 -25.91,-0.15 -5.38,0.13 -5.83,1.3 -8.54,4.15l-19.28 19.38c-3.99,3.96 -8.22,9.77 -13.16,12.05z"/>
 </g>
</svg>